<svg width="48" height="48" viewBox="0 0 48 48" fill="none" xmlns="http://www.w3.org/2000/svg">
<rect width="48" height="48" rx="8.88889" fill="white"/>
<path d="M15 30C12 30 10 28 10 25C10 23 11.5 21 14.5 20L20 18C22.5 17 23 15.5 23 15C23 13 21.5 12 20 12C18 12 16.5 13 15 14.5L13 12.5C14.5 11 16.5 10 20 10C24 10 27 12 27 15C27 17.5 25.5 19.5 22.5 20.5L17 22C15 22.5 13 23.5 13 25C13 26.5 14.5 28 17 28C19 28 20.5 27 22 26L23.5 28C21.5 29.5 18.5 30 15 30Z 
M30 30V20L27 20V18H33V30H30ZM36 30V23L34 23V21H38V30H36Z" 
fill="url(#paint0_linear_1545_39)"/>
<defs>
<linearGradient id="paint0_linear_1545_39" x1="8" y1="35.5" x2="38.0109" y2="10.5484" gradientUnits="userSpaceOnUse">
<stop stop-color="#989FFF"/>
<stop offset="1" stop-color="#29A2FF"/>
</linearGradient>
</defs>
</svg>

